<mxfile host="65bd71144e">
    <diagram id="c903NYY6Gn3Lkph7trLJ" name="Page-1">
        <mxGraphModel dx="1118" dy="536" grid="1" gridSize="10" guides="1" tooltips="1" connect="1" arrows="1" fold="1" page="1" pageScale="1" pageWidth="3300" pageHeight="4681" math="0" shadow="0">
            <root>
                <mxCell id="0"/>
                <mxCell id="1" parent="0"/>
                <mxCell id="2" value="Is agent in a safety place?&amp;nbsp;" style="rounded=0;whiteSpace=wrap;html=1;" parent="1" vertex="1">
                    <mxGeometry x="540" y="30" width="120" height="60" as="geometry"/>
                </mxCell>
                <mxCell id="4" value="Go to safe zone" style="rhombus;whiteSpace=wrap;html=1;" parent="1" vertex="1">
                    <mxGeometry x="190" y="150" width="130" height="80" as="geometry"/>
                </mxCell>
                <mxCell id="8" value="" style="endArrow=classic;html=1;entryX=0.5;entryY=0;entryDx=0;entryDy=0;exitX=0.5;exitY=1;exitDx=0;exitDy=0;" parent="1" source="2" target="4" edge="1">
                    <mxGeometry relative="1" as="geometry">
                        <mxPoint x="1180" y="210" as="sourcePoint"/>
                        <mxPoint x="1200" y="410" as="targetPoint"/>
                    </mxGeometry>
                </mxCell>
                <mxCell id="9" value="no" style="edgeLabel;resizable=0;html=1;align=center;verticalAlign=middle;" parent="8" connectable="0" vertex="1">
                    <mxGeometry relative="1" as="geometry"/>
                </mxCell>
                <mxCell id="11" value="Is there any item in the vision?" style="rounded=0;whiteSpace=wrap;html=1;" parent="1" vertex="1">
                    <mxGeometry x="620" y="280" width="120" height="60" as="geometry"/>
                </mxCell>
                <mxCell id="13" value="" style="endArrow=classic;html=1;exitX=0.5;exitY=1;exitDx=0;exitDy=0;entryX=0.5;entryY=0;entryDx=0;entryDy=0;" parent="1" source="2" target="37" edge="1">
                    <mxGeometry relative="1" as="geometry">
                        <mxPoint x="1100" y="410" as="sourcePoint"/>
                        <mxPoint x="940" y="130" as="targetPoint"/>
                    </mxGeometry>
                </mxCell>
                <mxCell id="14" value="yes" style="edgeLabel;resizable=0;html=1;align=center;verticalAlign=middle;" parent="13" connectable="0" vertex="1">
                    <mxGeometry relative="1" as="geometry"/>
                </mxCell>
                <mxCell id="16" value="Is there any enemy in the vision?" style="rounded=0;whiteSpace=wrap;html=1;" parent="1" vertex="1">
                    <mxGeometry x="430" y="440" width="120" height="60" as="geometry"/>
                </mxCell>
                <mxCell id="18" value="Kill Enemy" style="rhombus;whiteSpace=wrap;html=1;" parent="1" vertex="1">
                    <mxGeometry x="580" y="590" width="130" height="80" as="geometry"/>
                </mxCell>
                <mxCell id="19" value="Destroy Obstacle" style="rhombus;whiteSpace=wrap;html=1;" parent="1" vertex="1">
                    <mxGeometry x="270" y="590" width="150" height="80" as="geometry"/>
                </mxCell>
                <mxCell id="20" value="" style="endArrow=classic;html=1;entryX=1;entryY=0;entryDx=0;entryDy=0;exitX=0.5;exitY=1;exitDx=0;exitDy=0;" parent="1" source="16" target="19" edge="1">
                    <mxGeometry relative="1" as="geometry">
                        <mxPoint x="940" y="410" as="sourcePoint"/>
                        <mxPoint x="1040" y="410" as="targetPoint"/>
                    </mxGeometry>
                </mxCell>
                <mxCell id="21" value="no" style="edgeLabel;resizable=0;html=1;align=center;verticalAlign=middle;" parent="20" connectable="0" vertex="1">
                    <mxGeometry relative="1" as="geometry"/>
                </mxCell>
                <mxCell id="24" value="" style="endArrow=classic;html=1;fontSize=11;entryX=0;entryY=0;entryDx=0;entryDy=0;exitX=0.5;exitY=1;exitDx=0;exitDy=0;" parent="1" source="16" target="18" edge="1">
                    <mxGeometry relative="1" as="geometry">
                        <mxPoint x="940" y="410" as="sourcePoint"/>
                        <mxPoint x="1040" y="410" as="targetPoint"/>
                    </mxGeometry>
                </mxCell>
                <mxCell id="25" value="yes" style="edgeLabel;resizable=0;html=1;align=center;verticalAlign=middle;" parent="24" connectable="0" vertex="1">
                    <mxGeometry relative="1" as="geometry"/>
                </mxCell>
                <mxCell id="26" value="" style="endArrow=classic;html=1;fontSize=11;entryX=0.5;entryY=0;entryDx=0;entryDy=0;exitX=0.5;exitY=1;exitDx=0;exitDy=0;" parent="1" source="11" target="16" edge="1">
                    <mxGeometry relative="1" as="geometry">
                        <mxPoint x="940" y="410" as="sourcePoint"/>
                        <mxPoint x="1040" y="410" as="targetPoint"/>
                    </mxGeometry>
                </mxCell>
                <mxCell id="27" value="no" style="edgeLabel;resizable=0;html=1;align=center;verticalAlign=middle;" parent="26" connectable="0" vertex="1">
                    <mxGeometry relative="1" as="geometry"/>
                </mxCell>
                <mxCell id="28" value="Is there any enemy threatened agent?" style="rounded=0;whiteSpace=wrap;html=1;" parent="1" vertex="1">
                    <mxGeometry x="870" y="440" width="120" height="60" as="geometry"/>
                </mxCell>
                <mxCell id="29" value="" style="endArrow=classic;html=1;fontSize=11;exitX=0.5;exitY=1;exitDx=0;exitDy=0;entryX=0.5;entryY=0;entryDx=0;entryDy=0;" parent="1" source="11" target="28" edge="1">
                    <mxGeometry relative="1" as="geometry">
                        <mxPoint x="940" y="410" as="sourcePoint"/>
                        <mxPoint x="1040" y="410" as="targetPoint"/>
                    </mxGeometry>
                </mxCell>
                <mxCell id="30" value="yes" style="edgeLabel;resizable=0;html=1;align=center;verticalAlign=middle;" parent="29" connectable="0" vertex="1">
                    <mxGeometry relative="1" as="geometry"/>
                </mxCell>
                <mxCell id="31" value="Kill Enemy" style="rhombus;whiteSpace=wrap;html=1;" parent="1" vertex="1">
                    <mxGeometry x="1010" y="590" width="130" height="80" as="geometry"/>
                </mxCell>
                <mxCell id="32" value="Earn Item" style="rhombus;whiteSpace=wrap;html=1;" parent="1" vertex="1">
                    <mxGeometry x="760" y="590" width="130" height="80" as="geometry"/>
                </mxCell>
                <mxCell id="33" value="" style="endArrow=classic;html=1;fontSize=11;entryX=0.808;entryY=0.313;entryDx=0;entryDy=0;entryPerimeter=0;exitX=0.5;exitY=1;exitDx=0;exitDy=0;" parent="1" source="28" target="32" edge="1">
                    <mxGeometry relative="1" as="geometry">
                        <mxPoint x="940" y="400" as="sourcePoint"/>
                        <mxPoint x="1040" y="400" as="targetPoint"/>
                    </mxGeometry>
                </mxCell>
                <mxCell id="34" value="no" style="edgeLabel;resizable=0;html=1;align=center;verticalAlign=middle;" parent="33" connectable="0" vertex="1">
                    <mxGeometry relative="1" as="geometry"/>
                </mxCell>
                <mxCell id="35" value="" style="endArrow=classic;html=1;fontSize=11;entryX=0;entryY=0;entryDx=0;entryDy=0;exitX=0.5;exitY=1;exitDx=0;exitDy=0;" parent="1" source="28" target="31" edge="1">
                    <mxGeometry relative="1" as="geometry">
                        <mxPoint x="770" y="420" as="sourcePoint"/>
                        <mxPoint x="892.5" y="530" as="targetPoint"/>
                    </mxGeometry>
                </mxCell>
                <mxCell id="36" value="yes" style="edgeLabel;resizable=0;html=1;align=center;verticalAlign=middle;" parent="35" connectable="0" vertex="1">
                    <mxGeometry relative="1" as="geometry"/>
                </mxCell>
                <mxCell id="37" value="Is the exit available?" style="rounded=0;whiteSpace=wrap;html=1;fontSize=12;" parent="1" vertex="1">
                    <mxGeometry x="850" y="160" width="120" height="60" as="geometry"/>
                </mxCell>
                <mxCell id="38" value="" style="endArrow=classic;html=1;exitX=0.5;exitY=1;exitDx=0;exitDy=0;entryX=0.5;entryY=0;entryDx=0;entryDy=0;" parent="1" source="37" target="42" edge="1">
                    <mxGeometry relative="1" as="geometry">
                        <mxPoint x="960" y="220" as="sourcePoint"/>
                        <mxPoint x="1170" y="280" as="targetPoint"/>
                    </mxGeometry>
                </mxCell>
                <mxCell id="39" value="yes" style="edgeLabel;resizable=0;html=1;align=center;verticalAlign=middle;" parent="38" connectable="0" vertex="1">
                    <mxGeometry relative="1" as="geometry"/>
                </mxCell>
                <mxCell id="40" value="" style="endArrow=classic;html=1;fontSize=11;entryX=0.5;entryY=0;entryDx=0;entryDy=0;exitX=0.5;exitY=1;exitDx=0;exitDy=0;" parent="1" source="37" target="11" edge="1">
                    <mxGeometry relative="1" as="geometry">
                        <mxPoint x="890" y="270" as="sourcePoint"/>
                        <mxPoint x="710" y="320" as="targetPoint"/>
                    </mxGeometry>
                </mxCell>
                <mxCell id="41" value="no" style="edgeLabel;resizable=0;html=1;align=center;verticalAlign=middle;" parent="40" connectable="0" vertex="1">
                    <mxGeometry relative="1" as="geometry"/>
                </mxCell>
                <mxCell id="42" value="Go to the exit" style="rhombus;whiteSpace=wrap;html=1;" parent="1" vertex="1">
                    <mxGeometry x="1100" y="270" width="130" height="80" as="geometry"/>
                </mxCell>
            </root>
        </mxGraphModel>
    </diagram>
</mxfile>